# xmcd CD database file generated by Grip 3.2.0
# 
# Track frame offsets:
#       150
#       15442
#       32777
#       48965
#       69545
#       94417
#       111012
#       131987
#       149740
#       170642
#       190010
#       206447
#       219762
#       230985
# 
# Disc length: 3404 seconds
# 
# Revision: 10
# Processed by: cddbd v1.5.1PL0 Copyright (c) Steve Scherf et al.
# Submitted via: Grip 3.2.0
# 
DISCID=d00d4a0e
DTITLE=Blues Package - No Way Out
DYEAR=1900
DGENRE=Other
TTITLE0=Big Boss Man
TTITLE1=Slow Turning
TTITLE2=One Step Ahead
TTITLE3=Born Under A Bad Sign
TTITLE4=Fooled No More
TTITLE5=Friday Morning
TTITLE6=Walkin' In The Sun
TTITLE7=One Way Out
TTITLE8=As The Years Go Passing By
TTITLE9=Perfectly Good Guitar
TTITLE10=Blowing Tubes
TTITLE11=Shake Yor Money
TTITLE12=Hound Dog
TTITLE13=Ain't No Love
EXTD=Arschfassenrcords, Hamburg, 1995
EXTT0=
EXTT1=
EXTT2=
EXTT3=
EXTT4=
EXTT5=
EXTT6=
EXTT7=
EXTT8=
EXTT9=
EXTT10=
EXTT11=
EXTT12=
EXTT13=
PLAYORDER=
